# xmcd
#
# Track frame offsets:
#	170
#	11792
#	25690
#	43715
#	56777
#	67290
#	80055
#	96567
#	113332
#	127872
#	147220
#
# Disc length: 2123 seconds
#
# Revision: 1
# Processed by: cddbd v1.4PL0 Copyright (c) Steve Scherf et al.
# Submitted via: audiograbber 1.81.01
#
DISCID=9808490b
DTITLE=The Shadows - Party Tuff Or Stay Home
DYEAR=1992
DGENRE=Blues
TTITLE0=My Baby's Comin' Home
TTITLE1=Mighty Crazy
TTITLE2=Kill The Ice Ream Man
TTITLE3=Walin' With J T
TTITLE4=You Left The Water Running
TTITLE5=Be Careful
TTITLE6=Honey, Don't You Go
TTITLE7=Mary Ann
TTITLE8=Ain't No Fun To Me
TTITLE9=Cracks In My Ceiling
TTITLE10=Somebody's Watching You
EXTD=
EXTT0=
EXTT1=
EXTT2=
EXTT3=
EXTT4=
EXTT5=
EXTT6=
EXTT7=
EXTT8=
EXTT9=
EXTT10=
PLAYORDER=
